<?xml version="1.0" standalone="yes"?>
<svg xmlns="http://www.w3.org/2000/svg" width="1024" height="1024">
<path style="fill:#c5cdcf; stroke:none;" d="M0 0L0 1024L1024 1024L1024 0L576 0L576 32L544 32L544 0L0 0z"/>
<path style="fill:#613ea1; stroke:none;" d="M544 0L544 32L576 32L576 0L544 0M480 32L480 64L384 64L384 160L576 160L576 256L544 256L544 224L512 224L512 256L416 256L416 320L480 320L480 352L512 352L512 320L480 320L480 288L576 288L576 256L608 256L608 224L640 224L640 256L672 256L672 192L608 192L608 128L480 128L480 96L512 96L512 64L544 64L544 32L480 32z"/>
<path style="fill:#110e0d; stroke:none;" d="M400 320L400 336L352 336L352 352L320 352L320 368L288 368L288 384L256 384L256 400L240 400L240 416L272 416L272 432L288 432L288 448L304 448L304 464L320 464L320 544L336 544L336 560L352 560L352 576L368 576L368 592L384 592L384 608L400 608L400 624L432 624L432 640L560 640L560 624L608 624L608 592L624 592L624 576L640 576L640 544L672 544L672 512L704 512L704 496L784 496L784 464L800 464L800 448L816 448L816 384L800 384L800 368L784 368L784 336L736 336L736 320L704 320L704 336L576 336L576 320L512 320L512 352L704 352L704 384L672 384L672 416L608 416L608 448L512 448L512 480L608 480L608 448L672 448L672 512L640 512L640 544L608 544L608 576L576 576L576 608L416 608L416 576L384 576L384 544L352 544L352 448L384 448L384 480L480 480L480 448L384 448L384 416L320 416L320 384L352 384L352 352L480 352L480 320L400 320z"/>
<path style="fill:#995424; stroke:none;" d="M352 352L352 384L320 384L320 416L384 416L384 448L608 448L608 416L672 416L672 384L704 384L704 352L352 352z"/>
<path style="fill:#b7c7cb; stroke:none;" d="M736 352L736 384L768 384L768 448L736 448L736 416L704 416L704 480L768 480L768 448L800 448L800 384L768 384L768 352L736 352z"/>
<path style="fill:#daa57e; stroke:none;" d="M416 384L416 416L576 416L576 384L416 384z"/>
<path style="fill:#c5cdcf; stroke:none;" d="M736 384L736 400L752 400L752 416L736 416L736 448L768 448L768 384L736 384z"/>
<path style="fill:#b7c7cb; stroke:none;" d="M352 448L352 544L384 544L384 576L416 576L416 608L576 608L576 544L640 544L640 480L672 480L672 448L608 448L608 480L512 480L512 448L480 448L480 480L384 480L384 448L352 448z"/>
<path style="fill:#c5cdcf; stroke:none;" d="M640 480L640 512L672 512L672 480L640 480M384 512L384 544L448 544L448 512L384 512M544 512L544 544L576 544L576 512L544 512M576 544L576 576L608 576L608 544L576 544z"/>
<path style="fill:#b7c7cb; stroke:none;" d="M368 624L368 640L352 640L352 672L384 672L384 688L416 688L416 704L448 704L448 720L592 720L592 704L544 704L544 688L800 688L800 656L784 656L784 640L720 640L720 656L592 656L592 624L576 624L576 640L432 640L432 624L368 624z"/>
<path style="fill:#c5cdcf; stroke:none;" d="M560 624L560 640L576 640L576 624L560 624M752 656L752 672L768 672L768 656L752 656z"/>
<path style="fill:#8b9092; stroke:none;" d="M137 782L137 797C138.74 792.852 138.74 786.148 137 782z"/>
<path style="fill:#535758; stroke:none;" d="M138 782C142.469 783.875 148.191 783 153 783L182 783C177.531 781.125 171.809 782 167 782L138 782z"/>
<path style="fill:#b3babc; stroke:none;" d="M182 782L182 797C183.74 792.852 183.74 786.148 182 782z"/>
<path style="fill:#535758; stroke:none;" d="M404 782C408.469 783.875 414.191 783 419 783L448 783C443.531 781.125 437.809 782 433 782L404 782z"/>
<path style="fill:#828788; stroke:none;" d="M448 782L448 797C449.74 792.852 449.74 786.148 448 782M655 782L655 871C657.497 865.049 656 856.42 656 850L656 805C656 798.049 657.701 788.436 655 782z"/>
<path style="fill:#535758; stroke:none;" d="M656 782C660.217 783.769 665.459 783 670 783C665.783 781.231 660.541 782 656 782z"/>
<path style="fill:#6c7072; stroke:none;" d="M670 782L670 812C672.395 806.293 671 798.154 671 792C671 788.581 671.328 785.166 670 782z"/>
<path style="fill:#828788; stroke:none;" d="M877 782L878 783L877 782z"/>
<path style="fill:#535758; stroke:none;" d="M878 782C882.217 783.769 887.459 783 892 783C887.784 781.231 882.541 782 878 782z"/>
<path style="fill:#9da4a5; stroke:none;" d="M892 782L892 871L877 871C880.352 872.407 890.403 873.733 892.397 869.682C895.023 864.344 893 853.889 893 848L893 803C893 796.58 894.497 787.951 892 782z"/>
<path style="fill:#000000; stroke:none;" d="M138 783L138 797L182 797L182 783L138 783M404 783L404 797L448 797L448 783L404 783M656 783L656 871L670 871L670 826L700 826L700 812L670 812L670 783L656 783z"/>
<path style="fill:#505454; stroke:none;" d="M877 783L877 871C879.701 864.564 878 854.951 878 848L878 804C878 797.58 879.497 788.951 877 783z"/>
<path style="fill:#000000; stroke:none;" d="M878 783L878 871L892 871L892 783L878 783z"/>
<path style="fill:#b3babc; stroke:none;" d="M122 797L122 871C124.189 865.784 123 858.619 123 853L123 817C123 810.846 124.395 802.707 122 797z"/>
<path style="fill:#2b2d2e; stroke:none;" d="M123 797C127.217 798.769 132.459 798 137 798C132.783 796.231 127.541 797 123 797z"/>
<path style="fill:#3b3d3e; stroke:none;" d="M137 797L137 871C139.189 865.784 138 858.619 138 853L138 817C138 810.846 139.395 802.707 137 797z"/>
<path style="fill:#9aa0a2; stroke:none;" d="M138 797C142.469 798.875 148.191 798 153 798L182 798C177.531 796.125 171.809 797 167 797L138 797z"/>
<path style="fill:#2b2d2e; stroke:none;" d="M182 797C186.471 798.876 192.183 798 197 798C192.529 796.124 186.817 797 182 797M389 797C393.471 798.876 399.183 798 404 798C399.529 796.124 393.817 797 389 797z"/>
<path style="fill:#9aa0a2; stroke:none;" d="M404 797C408.469 798.875 414.191 798 419 798L448 798C443.531 796.125 437.809 797 433 797L404 797z"/>
<path style="fill:#444747; stroke:none;" d="M448 797L448 812C449.74 807.852 449.74 801.148 448 797z"/>
<path style="fill:#2b2d2e; stroke:none;" d="M449 797C453.217 798.769 458.459 798 463 798C458.783 796.231 453.541 797 449 797z"/>
<path style="fill:#aab0b2; stroke:none;" d="M463 797L463 812C464.74 807.852 464.74 801.148 463 797z"/>
<path style="fill:#000000; stroke:none;" d="M123 798L123 871L137 871L137 798L123 798z"/>
<path style="fill:#131414; stroke:none;" d="M182 798L182 812C183.667 808.028 183.667 801.972 182 798z"/>
<path style="fill:#000000; stroke:none;" d="M183 798L183 812L196 812L196 798L183 798z"/>
<path style="fill:#161717; stroke:none;" d="M196 798L196 812C197.667 808.028 197.667 801.972 196 798z"/>
<path style="fill:#1f2021; stroke:none;" d="M389 798L389 871C391.189 865.784 390 858.619 390 853L390 817C390 811.113 391.292 803.463 389 798z"/>
<path style="fill:#000000; stroke:none;" d="M390 798L390 871L403 871L403 798L390 798z"/>
<path style="fill:#0a0a0a; stroke:none;" d="M403 798L403 871C405.189 865.784 404 858.619 404 853L404 817C404 811.113 405.292 803.463 403 798z"/>
<path style="fill:#000000; stroke:none;" d="M449 798L449 812L463 812L463 798L449 798z"/>
<path style="fill:#828788; stroke:none;" d="M211 812L211 871C212.981 866.28 212 860.08 212 855L212 826C212 821.464 212.769 816.215 211 812z"/>
<path style="fill:#000000; stroke:none;" d="M212 812L212 871L226 871L226 812L212 812z"/>
<path style="fill:#6c7072; stroke:none;" d="M226 812L226 871C227.769 866.785 227 861.536 227 857L227 828C227 822.92 227.981 816.72 226 812z"/>
<path style="fill:#a6adaf; stroke:none;" d="M270 812L270 871C271.769 866.785 271 861.536 271 857L271 828C271 822.92 271.981 816.72 270 812z"/>
<path style="fill:#000000; stroke:none;" d="M271 812L271 871L285 871L285 812L271 812z"/>
<path style="fill:#474a4b; stroke:none;" d="M285 812L285 871C286.981 866.28 286 860.08 286 855L286 826C286 821.464 286.769 816.215 285 812z"/>
<path style="fill:#505454; stroke:none;" d="M300 812L300 887L300 906C300.001 908.469 299.376 912.311 301.028 914.397C303.473 917.484 311.486 916 315 916C310.784 914.231 305.541 915 301 915L301 843C301 833.94 303.507 820.357 300 812z"/>
<path style="fill:#000000; stroke:none;" d="M301 812L301 915L315 915L315 886L359 886L359 872L315 872L315 826L359 826L359 812L301 812z"/>
<path style="fill:#505454; stroke:none;" d="M359 812L359 827C360.74 822.852 360.74 816.148 359 812z"/>
<path style="fill:#8b9092; stroke:none;" d="M492 812L492 827C493.74 822.852 493.74 816.148 492 812z"/>
<path style="fill:#000000; stroke:none;" d="M493 812L493 826L537 826L537 812L493 812z"/>
<path style="fill:#b3babc; stroke:none;" d="M537 812L537 826C538.667 822.028 538.667 815.972 537 812z"/>
<path style="fill:#5a5d5e; stroke:none;" d="M581 812L581 827C582.74 822.852 582.74 816.148 581 812z"/>
<path style="fill:#000000; stroke:none;" d="M582 812L582 826L625 826L625 812L582 812z"/>
<path style="fill:#252727; stroke:none;" d="M625 812L625 826L582 826C586.469 827.875 592.191 827 597 827L626 827C626 822.183 626.876 816.471 625 812z"/>
<path style="fill:#828788; stroke:none;" d="M714 812L714 886C716.189 880.784 715 873.619 715 868L715 832C715 825.846 716.395 817.707 714 812z"/>
<path style="fill:#000000; stroke:none;" d="M715 812L715 886L729 886L729 841L744 841L744 827L729 827L729 812L715 812z"/>
<path style="fill:#6c7072; stroke:none;" d="M729 812L729 827C730.74 822.852 730.74 816.148 729 812z"/>
<path style="fill:#323434; stroke:none;" d="M744 812L744 827C745.74 822.852 745.74 816.148 744 812z"/>
<path style="fill:#000000; stroke:none;" d="M745 812L745 826L773 826L773 812L745 812z"/>
<path style="fill:#252727; stroke:none;" d="M773 812L773 826L745 826C752.888 829.31 765.449 827 774 827C774 822.183 774.876 816.471 773 812z"/>
<path style="fill:#5a5d5e; stroke:none;" d="M803 812L803 827C804.74 822.852 804.74 816.148 803 812z"/>
<path style="fill:#000000; stroke:none;" d="M804 812L804 826L847 826L847 812L804 812z"/>
<path style="fill:#252727; stroke:none;" d="M847 812L847 826L804 826C808.469 827.875 814.191 827 819 827L848 827C848 822.183 848.876 816.471 847 812M315 826C319.469 827.875 325.191 827 330 827L359 827C354.531 825.125 348.809 826 344 826L315 826z"/>
<path style="fill:#a0a7a8; stroke:none;" d="M360 826C364.217 827.769 369.459 827 374 827C369.784 825.231 364.541 826 360 826M478 826C482.217 827.769 487.459 827 492 827C487.783 825.231 482.541 826 478 826z"/>
<path style="fill:#252727; stroke:none;" d="M493 826C497.469 827.875 503.191 827 508 827L537 827C532.531 825.125 526.809 826 522 826L493 826z"/>
<path style="fill:#a0a7a8; stroke:none;" d="M537 826C541.471 827.876 547.183 827 552 827C547.529 825.124 541.817 826 537 826M567 826C571.217 827.769 576.459 827 581 827C576.784 825.231 571.541 826 567 826M626 826C630.471 827.876 636.183 827 641 827C636.529 825.124 630.817 826 626 826z"/>
<path style="fill:#252727; stroke:none;" d="M670 826C678.128 829.411 691.186 827 700 827C691.872 823.589 678.814 826 670 826z"/>
<path style="fill:#a0a7a8; stroke:none;" d="M730 826C734.217 827.769 739.459 827 744 827C739.783 825.231 734.541 826 730 826M789 826C793.217 827.769 798.459 827 803 827C798.783 825.231 793.541 826 789 826M848 826C852.472 827.876 858.183 827 863 827C858.529 825.124 852.817 826 848 826z"/>
<path style="fill:#9da4a5; stroke:none;" d="M315 827L315 871C316.552 867.301 316 862.983 316 859L316 839C316 835.017 316.552 830.699 315 827z"/>
<path style="fill:#c5cdcf; stroke:none;" d="M316 827L316 871L359 871L359 827L316 827z"/>
<path style="fill:#757a7b; stroke:none;" d="M359 827L359 871C360.552 867.301 360 862.983 360 859L360 839C360 835.017 360.552 830.699 359 827z"/>
<path style="fill:#000000; stroke:none;" d="M360 827L360 871L374 871L374 827L360 827z"/>
<path style="fill:#787d7e; stroke:none;" d="M374 827L374 871C375.552 867.301 375 862.983 375 859L375 838C375 834.298 375.441 830.435 374 827z"/>
<path style="fill:#b3babc; stroke:none;" d="M477 827L477 871C478.552 867.301 478 862.983 478 859L478 839C478 835.017 478.552 830.699 477 827z"/>
<path style="fill:#000000; stroke:none;" d="M478 827L478 871L492 871L492 827L478 827z"/>
<path style="fill:#3b3d3e; stroke:none;" d="M492 827L492 871C493.552 867.301 493 862.983 493 859L493 838C493 834.298 493.441 830.435 492 827z"/>
<path style="fill:#c5cdcf; stroke:none;" d="M493 827L493 871L537 871L537 827L493 827z"/>
<path style="fill:#131414; stroke:none;" d="M537 827L537 871C538.441 867.565 538 863.702 538 860L538 839C538 835.017 538.552 830.699 537 827z"/>
<path style="fill:#000000; stroke:none;" d="M538 827L538 871L551 871L551 827L538 827z"/>
<path style="fill:#161717; stroke:none;" d="M551 827L551 871C552.552 867.301 552 862.983 552 859L552 839C552 835.017 552.552 830.699 551 827z"/>
<path style="fill:#828788; stroke:none;" d="M566 827L566 886C567.769 881.785 567 876.535 567 872L567 843C567 837.92 567.981 831.72 566 827z"/>
<path style="fill:#000000; stroke:none;" d="M567 827L567 886L581 886L581 827L567 827z"/>
<path style="fill:#6c7072; stroke:none;" d="M581 827L581 886C582.769 881.785 582 876.535 582 872L582 843C582 837.92 582.981 831.72 581 827z"/>
<path style="fill:#a6adaf; stroke:none;" d="M625 827L625 886C626.981 881.28 626 875.08 626 870L626 841C626 836.465 626.769 831.215 625 827z"/>
<path style="fill:#000000; stroke:none;" d="M626 827L626 886L640 886L640 827L626 827z"/>
<path style="fill:#474a4b; stroke:none;" d="M640 827L640 886C641.981 881.28 641 875.08 641 870L641 841C641 836.464 641.769 831.215 640 827z"/>
<path style="fill:#6c7072; stroke:none;" d="M670 827L670 871C671.552 867.301 671 862.983 671 859L671 839C671 835.017 671.552 830.699 670 827z"/>
<path style="fill:#949a9c; stroke:none;" d="M744 827L744 842C745.74 837.852 745.74 831.148 744 827z"/>
<path style="fill:#828788; stroke:none;" d="M788 827L788 871C789.552 867.301 789 862.983 789 859L789 838C789 834.298 789.441 830.435 788 827z"/>
<path style="fill:#000000; stroke:none;" d="M789 827L789 871L803 871L803 827L789 827z"/>
<path style="fill:#6c7072; stroke:none;" d="M803 827L803 871C804.441 867.565 804 863.702 804 860L804 839C804 835.017 804.552 830.699 803 827z"/>
<path style="fill:#c5cdcf; stroke:none;" d="M804 827L804 871L847 871L847 827L804 827z"/>
<path style="fill:#a6adaf; stroke:none;" d="M847 827L847 871C848.441 867.565 848 863.702 848 860L848 839C848 835.017 848.552 830.699 847 827z"/>
<path style="fill:#000000; stroke:none;" d="M848 827L848 871L862 871L862 827L848 827z"/>
<path style="fill:#474a4b; stroke:none;" d="M862 827L862 871C863.441 867.565 863 863.702 863 860L863 839C863 835.017 863.552 830.699 862 827z"/>
<path style="fill:#4d5051; stroke:none;" d="M729 841C733.472 842.876 739.183 842 744 842C739.529 840.124 733.817 841 729 841z"/>
<path style="fill:#6c7072; stroke:none;" d="M729 842L729 886C730.552 882.301 730 877.983 730 874L730 854C730 850.017 730.552 845.699 729 842z"/>
<path style="fill:#505454; stroke:none;" d="M182 856C186.471 857.876 192.183 857 197 857C192.529 855.124 186.817 856 182 856M448 856C452.471 857.876 458.183 857 463 857C458.529 855.124 452.817 856 448 856z"/>
<path style="fill:#aab0b2; stroke:none;" d="M463 856L463 871C464.74 866.852 464.74 860.148 463 856z"/>
<path style="fill:#131414; stroke:none;" d="M182 857L182 871C183.667 867.028 183.667 860.972 182 857z"/>
<path style="fill:#000000; stroke:none;" d="M183 857L183 871L196 871L196 857L183 857z"/>
<path style="fill:#161717; stroke:none;" d="M196 857L196 871C197.667 867.028 197.667 860.972 196 857z"/>
<path style="fill:#444747; stroke:none;" d="M448 857L448 871C449.667 867.028 449.667 860.972 448 857z"/>
<path style="fill:#000000; stroke:none;" d="M449 857L449 871L463 871L463 857L449 857z"/>
<path style="fill:#9da4a5; stroke:none;" d="M123 871C127.217 872.769 132.459 872 137 872C132.783 870.231 127.541 871 123 871z"/>
<path style="fill:#8b9092; stroke:none;" d="M137 871L137 886C138.74 881.852 138.74 875.148 137 871z"/>
<path style="fill:#282a2a; stroke:none;" d="M138 871C142.469 872.875 148.191 872 153 872L182 872C177.531 870.125 171.809 871 167 871L138 871z"/>
<path style="fill:#9da4a5; stroke:none;" d="M182 871C186.471 872.876 192.183 872 197 872C192.529 870.124 186.817 871 182 871M212 871C216.217 872.769 221.459 872 226 872C221.783 870.231 216.541 871 212 871z"/>
<path style="fill:#5a5d5e; stroke:none;" d="M226 871L226 886C227.74 881.852 227.74 875.148 226 871z"/>
<path style="fill:#282a2a; stroke:none;" d="M227 871C231.215 872.769 236.464 872 241 872L270 872L270 886C271.876 881.529 271 875.817 271 871L227 871z"/>
<path style="fill:#9da4a5; stroke:none;" d="M271 871C275.471 872.876 281.183 872 286 872C281.529 870.124 275.817 871 271 871z"/>
<path style="fill:#282a2a; stroke:none;" d="M315 871C319.469 872.875 325.191 872 330 872L359 872C354.531 870.125 348.809 871 344 871L315 871z"/>
<path style="fill:#505454; stroke:none;" d="M359 871L359 886C360.74 881.852 360.74 875.148 359 871z"/>
<path style="fill:#9da4a5; stroke:none;" d="M360 871C364.217 872.769 369.459 872 374 872C369.784 870.231 364.541 871 360 871M389 871C393.471 872.876 399.183 872 404 872C399.529 870.124 393.817 871 389 871z"/>
<path style="fill:#282a2a; stroke:none;" d="M404 871C408.469 872.875 414.191 872 419 872L448 872C443.531 870.125 437.809 871 433 871L404 871z"/>
<path style="fill:#828788; stroke:none;" d="M448 871L448 886C449.74 881.852 449.74 875.148 448 871z"/>
<path style="fill:#9da4a5; stroke:none;" d="M449 871C453.217 872.769 458.459 872 463 872C458.783 870.231 453.541 871 449 871M478 871C482.217 872.769 487.459 872 492 872C487.783 870.231 482.541 871 478 871z"/>
<path style="fill:#8b9092; stroke:none;" d="M492 871L492 886C493.74 881.852 493.74 875.148 492 871z"/>
<path style="fill:#282a2a; stroke:none;" d="M493 871C497.469 872.875 503.191 872 508 872L537 872C532.531 870.125 526.809 871 522 871L493 871z"/>
<path style="fill:#9da4a5; stroke:none;" d="M537 871C541.471 872.876 547.183 872 552 872C547.529 870.124 541.817 871 537 871M656 871C660.217 872.769 665.459 872 670 872C665.783 870.231 660.541 871 656 871z"/>
<path style="fill:#5a5d5e; stroke:none;" d="M670 871L670 886C671.74 881.852 671.74 875.148 670 871z"/>
<path style="fill:#282a2a; stroke:none;" d="M671 871C678.888 874.31 691.449 872 700 872C692.112 868.69 679.551 871 671 871z"/>
<path style="fill:#9da4a5; stroke:none;" d="M789 871C793.217 872.769 798.459 872 803 872C798.783 870.231 793.541 871 789 871z"/>
<path style="fill:#5a5d5e; stroke:none;" d="M803 871L803 886C804.74 881.852 804.74 875.148 803 871z"/>
<path style="fill:#282a2a; stroke:none;" d="M804 871C808.215 872.769 813.464 872 818 872L847 872L847 886C848.876 881.529 848 875.817 848 871L804 871z"/>
<path style="fill:#9da4a5; stroke:none;" d="M848 871C852.472 872.876 858.183 872 863 872C858.529 870.124 852.817 871 848 871z"/>
<path style="fill:#282a2a; stroke:none;" d="M892 871L892 886C893.769 881.784 893 876.541 893 872L907 872C902.529 870.124 896.817 871 892 871z"/>
<path style="fill:#000000; stroke:none;" d="M138 872L138 886L182 886L182 872L138 872z"/>
<path style="fill:#b3babc; stroke:none;" d="M182 872L182 886C183.667 882.028 183.667 875.972 182 872z"/>
<path style="fill:#000000; stroke:none;" d="M227 872L227 886L270 886L270 872L227 872M404 872L404 886L448 886L448 872L404 872M493 872L493 886L537 886L537 872L493 872z"/>
<path style="fill:#b3babc; stroke:none;" d="M537 872L537 886C538.667 882.028 538.667 875.972 537 872z"/>
<path style="fill:#000000; stroke:none;" d="M671 872L671 886L700 886L700 872L671 872M804 872L804 886L847 886L847 872L804 872M893 872L893 886L907 886L907 872L893 872z"/>
<path style="fill:#9da4a5; stroke:none;" d="M315 886L315 916C317.395 910.293 316 902.154 316 896C316 892.581 316.328 889.166 315 886z"/>
<path style="fill:#7f8486; stroke:none;" d="M300 915L301 916L300 915z"/>
</svg>
